<?xml version="1.0" encoding="utf-8"?>
<!-- created with bpmn-js / http://bpmn.io -->
<!DOCTYPE svg PUBLIC "-//W3C//DTD SVG 1.1//EN" "http://www.w3.org/Graphics/SVG/1.1/DTD/svg11.dtd">
<svg xmlns="http://www.w3.org/2000/svg" xmlns:xlink="http://www.w3.org/1999/xlink" width="751" height="893" viewBox="124 74 751 893" version="1.1"><defs><marker id="sequenceflow-end-white-black-4tpr2ivhouwzbpiuwhk4izqi2" viewBox="0 0 20 20" refX="11" refY="10" markerWidth="10" markerHeight="10" orient="auto"><path d="M 1 5 L 11 10 L 1 15 Z" style="fill: black; stroke-width: 1px; stroke-linecap: round; stroke-dasharray: 10000, 1; stroke: black;"/></marker></defs><g class="djs-group"><g class="djs-element djs-shape" data-element-id="Participant_0wjcymo" style="display: block;" transform="matrix(1 0 0 1 130 80)"><g class="djs-visual"><rect x="0" y="0" width="739" height="881" rx="0" ry="0" style="stroke: black; stroke-width: 2px; fill: white; fill-opacity: 0.95;"/><polyline points="30,0 30,881 " style="fill: none; stroke: black; stroke-width: 2px;"/><text lineHeight="1.2" class="djs-label" style="font-family: Arial, sans-serif; font-size: 12px; font-weight: normal; fill: black;" transform="matrix(-1.83697e-16 -1 1 -1.83697e-16 0 881)"><tspan x="440.5" y="18.6"/></text></g><rect x="-6" y="-6" width="751" height="893" class="djs-outline" style="fill: none;"/><rect class="djs-hit djs-hit-click-stroke" x="0" y="0" width="739" height="881" style="fill: none; stroke-opacity: 0; stroke: white; stroke-width: 15px;"/><rect class="djs-hit djs-hit-all" x="0" y="0" width="30" height="881" style="fill: none; stroke-opacity: 0; stroke: white; stroke-width: 15px;"/></g><g class="djs-children"><g class="djs-group"><g class="djs-element djs-shape" data-element-id="Lane_1rnqow3" style="display: block;" transform="matrix(1 0 0 1 160 311)"><g class="djs-visual"><rect x="0" y="0" width="709" height="650" rx="0" ry="0" style="stroke: black; stroke-width: 2px; fill: white; fill-opacity: 0.35;"/><text lineHeight="1.2" class="djs-label" style="font-family: Arial, sans-serif; font-size: 12px; font-weight: normal; fill: black;" transform="matrix(-1.83697e-16 -1 1 -1.83697e-16 0 650)"><tspan x="325" y="18.6"/></text></g><rect x="-6" y="-6" width="721" height="662" class="djs-outline" style="fill: none;"/><rect class="djs-hit djs-hit-click-stroke" x="0" y="0" width="709" height="650" style="fill: none; stroke-opacity: 0; stroke: white; stroke-width: 15px;"/><rect class="djs-hit djs-hit-all" x="0" y="0" width="30" height="650" style="fill: none; stroke-opacity: 0; stroke: white; stroke-width: 15px;"/></g></g><g class="djs-group"><g class="djs-element djs-shape" data-element-id="Lane_1xs5was" style="display: block;" transform="matrix(1 0 0 1 160 80)"><g class="djs-visual"><rect x="0" y="0" width="709" height="231" rx="0" ry="0" style="stroke: black; stroke-width: 2px; fill: white; fill-opacity: 0.35;"/><text lineHeight="1.2" class="djs-label" style="font-family: Arial, sans-serif; font-size: 12px; font-weight: normal; fill: black;" transform="matrix(-1.83697e-16 -1 1 -1.83697e-16 0 231)"><tspan x="115.5" y="18.6"/></text></g><rect x="-6" y="-6" width="721" height="243" class="djs-outline" style="fill: none;"/><rect class="djs-hit djs-hit-click-stroke" x="0" y="0" width="709" height="231" style="fill: none; stroke-opacity: 0; stroke: white; stroke-width: 15px;"/><rect class="djs-hit djs-hit-all" x="0" y="0" width="30" height="231" style="fill: none; stroke-opacity: 0; stroke: white; stroke-width: 15px;"/></g><g class="djs-children"/></g><g class="djs-group"><g class="djs-element djs-shape" data-element-id="TextAnnotation_196hnxo" style="display: block;" transform="matrix(1 0 0 1 220 180)"><g class="djs-visual"><rect x="0" y="0" width="120" height="26" rx="0" ry="0" style="stroke: none; stroke-width: 2px; fill: none;"/><path d="m 0, 0 m 10,0 l -10,0 l 0,26 l 10,0" style="fill: none; stroke-width: 2px; stroke: black;"/><text lineHeight="1.2" class="djs-label" style="font-family: Arial, sans-serif; font-size: 12px; font-weight: normal; fill: black;"><tspan x="5" y="15.799999999999999">Запуск программы</tspan></text></g><rect class="djs-hit djs-hit-all" x="0" y="0" width="120" height="26" style="fill: none; stroke-opacity: 0; stroke: white; stroke-width: 15px;"/><rect x="-6" y="-6" width="132" height="38" class="djs-outline" style="fill: none;"/></g></g><g class="djs-group"><g class="djs-element djs-shape" data-element-id="TextAnnotation_045py0t" style="display: block;" transform="matrix(1 0 0 1 720 180)"><g class="djs-visual"><rect x="0" y="0" width="130" height="40" rx="0" ry="0" style="stroke: none; stroke-width: 2px; fill: none;"/><path d="m 0, 0 m 10,0 l -10,0 l 0,40 l 10,0" style="fill: none; stroke-width: 2px; stroke: black;"/><text lineHeight="1.2" class="djs-label" style="font-family: Arial, sans-serif; font-size: 12px; font-weight: normal; fill: black;"><tspan x="5" y="15.799999999999999">Конец программы</tspan></text></g><rect class="djs-hit djs-hit-all" x="0" y="0" width="130" height="40" style="fill: none; stroke-opacity: 0; stroke: white; stroke-width: 15px;"/><rect x="-6" y="-6" width="142" height="52" class="djs-outline" style="fill: none;"/></g></g><g class="djs-group"><g class="djs-element djs-connection" data-element-id="Flow_14lccdp" style="display: block;"><g class="djs-visual"><path d="m  310,430L405,430 " style="fill: none; stroke-width: 2px; stroke: black; stroke-linejoin: round; marker-end: url('#sequenceflow-end-white-black-4tpr2ivhouwzbpiuwhk4izqi2');"/></g><polyline points="310,430 405,430 " class="djs-hit djs-hit-stroke" style="fill: none; stroke-opacity: 0; stroke: white; stroke-width: 15px;"/><rect x="304" y="424" width="107" height="12" class="djs-outline" style="fill: none;"/></g></g><g class="djs-group"><g class="djs-element djs-connection" data-element-id="Flow_0lkxo4u" style="display: block;"><g class="djs-visual"><path d="m  260,258L260,390 " style="fill: none; stroke-width: 2px; stroke: black; stroke-linejoin: round; marker-end: url('#sequenceflow-end-white-black-4tpr2ivhouwzbpiuwhk4izqi2');"/></g><polyline points="260,258 260,390 " class="djs-hit djs-hit-stroke" style="fill: none; stroke-opacity: 0; stroke: white; stroke-width: 15px;"/><rect x="254" y="252" width="12" height="144" class="djs-outline" style="fill: none;"/></g></g><g class="djs-group"><g class="djs-element djs-connection" data-element-id="Flow_0a6800v" style="display: block;"><g class="djs-visual"><path d="m  310,430L340,430 L340,620 L405,620 " style="fill: none; stroke-width: 2px; stroke: black; stroke-linejoin: round; marker-end: url('#sequenceflow-end-white-black-4tpr2ivhouwzbpiuwhk4izqi2');"/></g><polyline points="310,430 340,430 340,620 405,620 " class="djs-hit djs-hit-stroke" style="fill: none; stroke-opacity: 0; stroke: white; stroke-width: 15px;"/><rect x="304" y="424" width="107" height="202" class="djs-outline" style="fill: none;"/></g></g><g class="djs-group"><g class="djs-element djs-connection" data-element-id="Flow_03v6r8k" style="display: block;"><g class="djs-visual"><path d="m  505,520L600,520 " style="fill: none; stroke-width: 2px; stroke: black; stroke-linejoin: round; marker-end: url('#sequenceflow-end-white-black-4tpr2ivhouwzbpiuwhk4izqi2');"/></g><polyline points="505,520 600,520 " class="djs-hit djs-hit-stroke" style="fill: none; stroke-opacity: 0; stroke: white; stroke-width: 15px;"/><rect x="499" y="514" width="107" height="12" class="djs-outline" style="fill: none;"/></g></g><g class="djs-group"><g class="djs-element djs-connection" data-element-id="Flow_1jfac85" style="display: block;"><g class="djs-visual"><path d="m  505,620L600,620 " style="fill: none; stroke-width: 2px; stroke: black; stroke-linejoin: round; marker-end: url('#sequenceflow-end-white-black-4tpr2ivhouwzbpiuwhk4izqi2');"/></g><polyline points="505,620 600,620 " class="djs-hit djs-hit-stroke" style="fill: none; stroke-opacity: 0; stroke: white; stroke-width: 15px;"/><rect x="499" y="614" width="107" height="12" class="djs-outline" style="fill: none;"/></g></g><g class="djs-group"><g class="djs-element djs-connection" data-element-id="Flow_07t0qfn" style="display: block;"><g class="djs-visual"><path d="m  650,660L650,700 L260,700 L260,470 " style="fill: none; stroke-width: 2px; stroke: black; stroke-linejoin: round; marker-end: url('#sequenceflow-end-white-black-4tpr2ivhouwzbpiuwhk4izqi2');"/></g><polyline points="650,660 650,700 260,700 260,470 " class="djs-hit djs-hit-stroke" style="fill: none; stroke-opacity: 0; stroke: white; stroke-width: 15px;"/><rect x="254" y="464" width="402" height="242" class="djs-outline" style="fill: none;"/></g></g><g class="djs-group"><g class="djs-element djs-connection" data-element-id="Flow_09u9e3k" style="display: block;"><g class="djs-visual"><path d="m  455,380L455,360 L260,360 L260,390 " style="fill: none; stroke-width: 2px; stroke: black; stroke-linejoin: round; marker-end: url('#sequenceflow-end-white-black-4tpr2ivhouwzbpiuwhk4izqi2');"/></g><polyline points="455,380 455,360 260,360 260,390 " class="djs-hit djs-hit-stroke" style="fill: none; stroke-opacity: 0; stroke: white; stroke-width: 15px;"/><rect x="254" y="354" width="207" height="42" class="djs-outline" style="fill: none;"/></g></g><g class="djs-group"><g class="djs-element djs-connection" data-element-id="Flow_0f1qrl1" style="display: block;"><g class="djs-visual"><path d="m  700,520L785,520 L785,460 " style="fill: none; stroke-width: 2px; stroke: black; stroke-linejoin: round; marker-end: url('#sequenceflow-end-white-black-4tpr2ivhouwzbpiuwhk4izqi2');"/></g><polyline points="700,520 785,520 785,460 " class="djs-hit djs-hit-stroke" style="fill: none; stroke-opacity: 0; stroke: white; stroke-width: 15px;"/><rect x="694" y="454" width="97" height="72" class="djs-outline" style="fill: none;"/></g></g><g class="djs-group"><g class="djs-element djs-connection" data-element-id="Flow_1khbbpd" style="display: block;"><g class="djs-visual"><path d="m  785,380L785,360 L260,360 L260,390 " style="fill: none; stroke-width: 2px; stroke: black; stroke-linejoin: round; marker-end: url('#sequenceflow-end-white-black-4tpr2ivhouwzbpiuwhk4izqi2');"/></g><polyline points="785,380 785,360 260,360 260,390 " class="djs-hit djs-hit-stroke" style="fill: none; stroke-opacity: 0; stroke: white; stroke-width: 15px;"/><rect x="254" y="354" width="537" height="42" class="djs-outline" style="fill: none;"/></g></g><g class="djs-group"><g class="djs-element djs-connection" data-element-id="Flow_1up86fs" style="display: block;"><g class="djs-visual"><path d="m  785,380L785,258 " style="fill: none; stroke-width: 2px; stroke: black; stroke-linejoin: round; marker-end: url('#sequenceflow-end-white-black-4tpr2ivhouwzbpiuwhk4izqi2');"/></g><polyline points="785,380 785,258 " class="djs-hit djs-hit-stroke" style="fill: none; stroke-opacity: 0; stroke: white; stroke-width: 15px;"/><rect x="779" y="252" width="12" height="134" class="djs-outline" style="fill: none;"/></g></g><g class="djs-group"><g class="djs-element djs-connection" data-element-id="Flow_1rxeuo5" style="display: block;"><g class="djs-visual"><path d="m  310,430L340,430 L340,520 L405,520 " style="fill: none; stroke-width: 2px; stroke: black; stroke-linejoin: round; marker-end: url('#sequenceflow-end-white-black-4tpr2ivhouwzbpiuwhk4izqi2');"/></g><polyline points="310,430 340,430 340,520 405,520 " class="djs-hit djs-hit-stroke" style="fill: none; stroke-opacity: 0; stroke: white; stroke-width: 15px;"/><rect x="304" y="424" width="107" height="102" class="djs-outline" style="fill: none;"/></g></g><g class="djs-group"><g class="djs-element djs-shape" data-element-id="Event_0tjdxn0" style="display: block;" transform="matrix(1 0 0 1 242 222)"><g class="djs-visual"><circle cx="18" cy="18" r="18" style="stroke: black; stroke-width: 1px; fill: white; fill-opacity: 0.95;"/><circle cx="18" cy="18" r="15" style="stroke: black; stroke-width: 1px; fill: none;"/></g><rect class="djs-hit djs-hit-all" x="0" y="0" width="36" height="36" style="fill: none; stroke-opacity: 0; stroke: white; stroke-width: 15px;"/><rect x="-6" y="-6" width="48" height="48" class="djs-outline" style="fill: none;"/></g></g><g class="djs-group"><g class="djs-element djs-shape" data-element-id="Activity_1lgl6gd" style="display: block;" transform="matrix(1 0 0 1 210 390)"><g class="djs-visual"><rect x="0" y="0" width="100" height="80" rx="10" ry="10" style="stroke: black; stroke-width: 2px; fill: white; fill-opacity: 0.95;"/><text lineHeight="1.2" class="djs-label" style="font-family: Arial, sans-serif; font-size: 12px; font-weight: normal; fill: black;"><tspan x="31.40625" y="36.4">Выбор </tspan><tspan x="24.7734375" y="50.8">действия</tspan></text></g><rect class="djs-hit djs-hit-all" x="0" y="0" width="100" height="80" style="fill: none; stroke-opacity: 0; stroke: white; stroke-width: 15px;"/><rect x="-6" y="-6" width="112" height="92" class="djs-outline" style="fill: none;"/></g></g><g class="djs-group"><g class="djs-element djs-shape" data-element-id="Event_1v2a35b" style="display: block;" transform="matrix(1 0 0 1 767 222)"><g class="djs-visual"><circle cx="18" cy="18" r="18" style="stroke: black; stroke-width: 4px; fill: white; fill-opacity: 0.95;"/></g><rect class="djs-hit djs-hit-all" x="0" y="0" width="36" height="36" style="fill: none; stroke-opacity: 0; stroke: white; stroke-width: 15px;"/><rect x="-6" y="-6" width="48" height="48" class="djs-outline" style="fill: none;"/></g></g><g class="djs-group"><g class="djs-element djs-shape" data-element-id="Activity_0pe6j4x" style="display: block;" transform="matrix(1 0 0 1 405 380)"><g class="djs-visual"><rect x="0" y="0" width="100" height="80" rx="10" ry="10" style="stroke: black; stroke-width: 2px; fill: white; fill-opacity: 0.95;"/><text lineHeight="1.2" class="djs-label" style="font-family: Arial, sans-serif; font-size: 12px; font-weight: normal; fill: black;"><tspan x="32.1640625" y="43.599999999999994">Вызов</tspan></text></g><rect class="djs-hit djs-hit-all" x="0" y="0" width="100" height="80" style="fill: none; stroke-opacity: 0; stroke: white; stroke-width: 15px;"/><rect x="-6" y="-6" width="112" height="92" class="djs-outline" style="fill: none;"/></g></g><g class="djs-group"><g class="djs-element djs-shape" data-element-id="Activity_19k5myw" style="display: block;" transform="matrix(1 0 0 1 405 480)"><g class="djs-visual"><rect x="0" y="0" width="100" height="80" rx="10" ry="10" style="stroke: black; stroke-width: 2px; fill: white; fill-opacity: 0.95;"/><text lineHeight="1.2" class="djs-label" style="font-family: Arial, sans-serif; font-size: 12px; font-weight: normal; fill: black;"><tspan x="17.6484375" y="43.599999999999994">Набор кода</tspan></text></g><rect class="djs-hit djs-hit-all" x="0" y="0" width="100" height="80" style="fill: none; stroke-opacity: 0; stroke: white; stroke-width: 15px;"/><rect x="-6" y="-6" width="112" height="92" class="djs-outline" style="fill: none;"/></g></g><g class="djs-group"><g class="djs-element djs-shape" data-element-id="Activity_1qec5ht" style="display: block;" transform="matrix(1 0 0 1 600 480)"><g class="djs-visual"><rect x="0" y="0" width="100" height="80" rx="10" ry="10" style="stroke: black; stroke-width: 2px; fill: white; fill-opacity: 0.95;"/><text lineHeight="1.2" class="djs-label" style="font-family: Arial, sans-serif; font-size: 12px; font-weight: normal; fill: black;"><tspan x="22.7109375" y="36.4">Открытие </tspan><tspan x="33.5234375" y="50.8">замка</tspan></text></g><rect class="djs-hit djs-hit-all" x="0" y="0" width="100" height="80" style="fill: none; stroke-opacity: 0; stroke: white; stroke-width: 15px;"/><rect x="-6" y="-6" width="112" height="92" class="djs-outline" style="fill: none;"/></g></g><g class="djs-group"><g class="djs-element djs-shape" data-element-id="Activity_101qlj7" style="display: block;" transform="matrix(1 0 0 1 405 580)"><g class="djs-visual"><rect x="0" y="0" width="100" height="80" rx="10" ry="10" style="stroke: black; stroke-width: 2px; fill: white; fill-opacity: 0.95;"/><text lineHeight="1.2" class="djs-label" style="font-family: Arial, sans-serif; font-size: 12px; font-weight: normal; fill: black;"><tspan x="23.5625" y="43.599999999999994">Контроль</tspan></text></g><rect class="djs-hit djs-hit-all" x="0" y="0" width="100" height="80" style="fill: none; stroke-opacity: 0; stroke: white; stroke-width: 15px;"/><rect x="-6" y="-6" width="112" height="92" class="djs-outline" style="fill: none;"/></g></g><g class="djs-group"><g class="djs-element djs-shape" data-element-id="Activity_067wzfg" style="display: block;" transform="matrix(1 0 0 1 600 580)"><g class="djs-visual"><rect x="0" y="0" width="100" height="80" rx="10" ry="10" style="stroke: black; stroke-width: 2px; fill: white; fill-opacity: 0.95;"/><text lineHeight="1.2" class="djs-label" style="font-family: Arial, sans-serif; font-size: 12px; font-weight: normal; fill: black;"><tspan x="16.984375" y="43.599999999999994">Смена кода</tspan></text></g><rect class="djs-hit djs-hit-all" x="0" y="0" width="100" height="80" style="fill: none; stroke-opacity: 0; stroke: white; stroke-width: 15px;"/><rect x="-6" y="-6" width="112" height="92" class="djs-outline" style="fill: none;"/></g></g><g class="djs-group"><g class="djs-element djs-shape" data-element-id="Activity_11brcq4" style="display: block;" transform="matrix(1 0 0 1 735 380)"><g class="djs-visual"><rect x="0" y="0" width="100" height="80" rx="10" ry="10" style="stroke: black; stroke-width: 2px; fill: white; fill-opacity: 0.95;"/><text lineHeight="1.2" class="djs-label" style="font-family: Arial, sans-serif; font-size: 12px; font-weight: normal; fill: black;"><tspan x="15.4765625" y="36.4">Очищение и </tspan><tspan x="6.0625" y="50.8">закрытие замка</tspan></text></g><rect class="djs-hit djs-hit-all" x="0" y="0" width="100" height="80" style="fill: none; stroke-opacity: 0; stroke: white; stroke-width: 15px;"/><rect x="-6" y="-6" width="112" height="92" class="djs-outline" style="fill: none;"/></g></g><g class="djs-group"><g class="djs-element djs-connection" data-element-id="Association_1tao7vp" style="display: block;"><g class="djs-visual"><polyline points="779,223 778,220 " style="fill: none; stroke: black; stroke-width: 2px; stroke-dasharray: 0.5, 5; stroke-linecap: round; stroke-linejoin: round;"/></g><polyline points="779,223 778,220 " class="djs-hit djs-hit-stroke" style="fill: none; stroke-opacity: 0; stroke: white; stroke-width: 15px;"/><rect x="772" y="214" width="13" height="15" class="djs-outline" style="fill: none;"/></g></g></g></g></svg>